<svg width="40" height="39" viewBox="0 0 40 39" fill="none" xmlns="http://www.w3.org/2000/svg">
<rect y="0.5" width="40" height="38" rx="19" fill="#224482"/>
<path d="M20.1419 10.5001C19.9822 10.5032 19.83 10.5692 19.7181 10.6841C19.6062 10.7989 19.5435 10.9533 19.5435 11.1142V22.7869C19.5435 22.9498 19.6078 23.106 19.7222 23.2212C19.8366 23.3363 19.9918 23.401 20.1536 23.401C20.3154 23.401 20.4706 23.3363 20.585 23.2212C20.6994 23.106 20.7636 22.9498 20.7636 22.7869V11.1142C20.7637 11.0326 20.7475 10.9519 20.7162 10.8766C20.6849 10.8014 20.639 10.7332 20.5812 10.6761C20.5234 10.6189 20.4548 10.5739 20.3795 10.5437C20.3043 10.5135 20.2229 10.4986 20.1419 10.5001ZM29.3727 13.9967C29.2931 13.999 29.2147 14.017 29.1419 14.0496L23.9064 16.4019C23.7993 16.4506 23.7084 16.5294 23.6447 16.6288C23.5809 16.7282 23.547 16.844 23.547 16.9623C23.547 17.0806 23.5809 17.1964 23.6447 17.2958C23.7084 17.3952 23.7993 17.474 23.9064 17.5227L29.1419 19.8834C29.2205 19.9188 29.3057 19.9371 29.3919 19.9371C29.5314 19.9367 29.6665 19.8881 29.7747 19.7996C29.8829 19.711 29.9578 19.5878 29.9867 19.4505C30.0157 19.3131 29.997 19.17 29.9338 19.0448C29.8706 18.9196 29.7667 18.82 29.6394 18.7626L25.6507 16.9631L29.6394 15.1704C29.7867 15.1036 29.9017 14.981 29.9595 14.8291C30.0173 14.6773 30.0131 14.5087 29.9478 14.36C29.8983 14.249 29.8172 14.1553 29.7149 14.0907C29.6126 14.026 29.4935 13.9933 29.3727 13.9967ZM10.6211 18.2182C10.5271 18.2165 10.4339 18.2366 10.3489 18.2772C10.2639 18.3177 10.1894 18.3774 10.1311 18.4518C10.0729 18.5261 10.0325 18.613 10.0131 18.7056C9.99371 18.7982 9.99587 18.8941 10.0194 18.9858C11.4662 24.5873 16.4991 28.5 22.2563 28.5C22.4181 28.5 22.5732 28.4353 22.6876 28.3201C22.8021 28.205 22.8663 28.0488 22.8663 27.8859C22.8663 27.723 22.8021 27.5668 22.6876 27.4517C22.5732 27.3365 22.4181 27.2718 22.2563 27.2718C19.7284 27.2728 17.2716 26.4297 15.2707 24.8745C13.2699 23.3194 11.838 21.14 11.1995 18.6779C11.1659 18.5484 11.0913 18.4335 10.9869 18.3507C10.8825 18.2679 10.754 18.2208 10.6211 18.2182Z" fill="#0B0F17"/>
</svg>
