<svg width="41" height="39" viewBox="0 0 41 39" fill="none" xmlns="http://www.w3.org/2000/svg">
<g clip-path="url(#clip0_1_20)">
<rect width="40" height="38" transform="translate(0.5 0.5)" fill="none" fill-opacity="0.2"/>
<path fill-rule="evenodd" clip-rule="evenodd" d="M20.5165 0.5C9.44791 0.5 0.5 9.2083 0.5 19.9816C0.5 28.5934 6.23324 35.883 14.1868 38.463C15.1812 38.657 15.5454 38.0438 15.5454 37.5281C15.5454 37.0764 15.5126 35.5283 15.5126 33.9153C9.9445 35.0767 8.78498 31.593 8.78498 31.593C7.89015 29.3352 6.56429 28.7549 6.56429 28.7549C4.74185 27.5614 6.69704 27.5614 6.69704 27.5614C8.71861 27.6905 9.77938 29.5612 9.77938 29.5612C11.5686 32.5283 14.4518 31.69 15.6118 31.1738C15.7773 29.9158 16.3079 29.045 16.8713 28.5613C12.4303 28.1097 7.75781 26.4325 7.75781 18.9493C7.75781 16.8205 8.55267 15.0789 9.81216 13.7243C9.61344 13.2406 8.91732 11.2405 10.0113 8.56349C10.0113 8.56349 11.7014 8.04732 15.5122 10.5632C17.1438 10.1368 18.8263 9.91985 20.5165 9.91802C22.2067 9.91802 23.9295 10.144 25.5205 10.5632C29.3317 8.04732 31.0218 8.56349 31.0218 8.56349C32.1158 11.2405 31.4192 13.2406 31.2205 13.7243C32.5132 15.0789 33.2753 16.8205 33.2753 18.9493C33.2753 26.4325 28.6028 28.0772 24.1287 28.5613C24.858 29.174 25.4873 30.335 25.4873 32.1737C25.4873 34.7861 25.4545 36.8829 25.4545 37.5277C25.4545 38.0438 25.8192 38.657 26.8132 38.4634C34.7667 35.8826 40.4999 28.5934 40.4999 19.9816C40.5327 9.2083 31.552 0.5 20.5165 0.5Z" fill="#224482"/>
</g>
<defs>
<clipPath id="clip0_1_20">
<rect width="40" height="38" fill="white" transform="translate(0.5 0.5)"/>
</clipPath>
</defs>
</svg>
