<svg width="40" height="39" viewBox="0 0 40 39" fill="none" xmlns="http://www.w3.org/2000/svg">
<g clip-path="url(#clip0_125_397)">
<path fill-rule="evenodd" clip-rule="evenodd" d="M20.0165 0.5C8.94791 0.5 0 9.2083 0 19.9816C0 28.5934 5.73324 35.883 13.6868 38.463C14.6812 38.657 15.0454 38.0438 15.0454 37.5281C15.0454 37.0764 15.0126 35.5283 15.0126 33.9153C9.4445 35.0767 8.28498 31.593 8.28498 31.593C7.39015 29.3352 6.06429 28.7549 6.06429 28.7549C4.24185 27.5614 6.19704 27.5614 6.19704 27.5614C8.21861 27.6905 9.27938 29.5612 9.27938 29.5612C11.0686 32.5283 13.9518 31.69 15.1118 31.1738C15.2773 29.9158 15.8079 29.045 16.3713 28.5613C11.9303 28.1097 7.25781 26.4325 7.25781 18.9493C7.25781 16.8205 8.05267 15.0789 9.31216 13.7243C9.11344 13.2406 8.41733 11.2405 9.51128 8.56349C9.51128 8.56349 11.2014 8.04732 15.0122 10.5632C16.6438 10.1368 18.3263 9.91985 20.0165 9.91802C21.7067 9.91802 23.4295 10.144 25.0205 10.5632C28.8317 8.04732 30.5218 8.56349 30.5218 8.56349C31.6158 11.2405 30.9192 13.2406 30.7205 13.7243C32.0132 15.0789 32.7753 16.8205 32.7753 18.9493C32.7753 26.4325 28.1028 28.0772 23.6287 28.5613C24.358 29.174 24.9873 30.335 24.9873 32.1737C24.9873 34.7861 24.9545 36.8829 24.9545 37.5277C24.9545 38.0438 25.3192 38.657 26.3132 38.4634C34.2667 35.8826 39.9999 28.5934 39.9999 19.9816C40.0327 9.2083 31.052 0.5 20.0165 0.5Z" fill="black"/>
</g>
<defs>
<clipPath id="clip0_125_397">
<rect width="40" height="38" fill="white" transform="translate(0 0.5)"/>
</clipPath>
</defs>
</svg>
